Coordinates
version=1
nRows=49
nColumns=12
inDegrees=yes

Units are S.I. units (second, meters, Newtons, ...)
Angles are in degrees

endheader
time	SC_y	SC_z	SC_x	AC_y	AC_z	AC_x	GH_y	GH_z	GH_yy	EL_x	PS_y
       0.0              -26.21          30.84          36.61          56.09         -19.82           18.7         -91.82          38.91           98.8          25.09          128.8
   0.03095              -26.21          30.84          36.61          56.08         -19.81           18.7         -91.79          38.92           98.8          25.09          128.8
   0.06189               -26.2          30.83          36.61          56.08         -19.81          18.69         -91.76          38.92          98.81           25.1          128.8
   0.09284               -26.2          30.83          36.61          56.08         -19.81          18.69         -91.73          38.93          98.81           25.1          128.8
    0.1238               -26.2          30.82          36.61          56.07          -19.8          18.69          -91.7          38.94          98.82          25.11          128.8
    0.1547               -26.2          30.81          36.61          56.07          -19.8          18.68         -91.66          38.94          98.83          25.11          128.9
    0.1857              -26.19          30.81          36.61          56.07         -19.79          18.68         -91.63          38.95          98.83          25.12          128.9
    0.2166              -26.19           30.8          36.61          56.06         -19.79          18.68         -91.58          38.96          98.84          25.12          128.9
    0.2476              -26.19          30.79          36.61          56.06         -19.78          18.67         -91.54          38.96          98.85          25.13          128.9
    0.2785              -26.18          30.78          36.61          56.05         -19.78          18.67         -91.49          38.97          98.86          25.13          128.9
    0.3095              -26.18          30.77          36.61          56.05         -19.77          18.66         -91.44          38.98          98.86          25.14          128.9
    0.3404              -26.18          30.76          36.61          56.04         -19.76          18.66         -91.39          38.99          98.87          25.15          128.9
    0.3714              -26.17          30.75          36.61          56.03         -19.76          18.65         -91.33           39.0          98.88          25.16          128.9
    0.4023              -26.17          30.74          36.61          56.03         -19.75          18.65         -91.27          39.02          98.89          25.16          128.9
    0.4333              -26.16          30.73          36.61          56.02         -19.74          18.64          -91.2          39.03          98.91          25.17          128.9
    0.4642              -26.16          30.71          36.61          56.01         -19.73          18.63         -91.13          39.04          98.92          25.18          128.9
    0.4951              -26.15           30.7          36.61           56.0         -19.72          18.63         -91.05          39.06          98.93          25.19          128.9
    0.5261              -26.15          30.68          36.61           56.0         -19.71          18.62         -90.96          39.07          98.95          25.21          128.9
     0.557              -26.14          30.66           36.6          55.99          -19.7          18.61         -90.87          39.09          98.96          25.22          128.9
     0.588              -26.13          30.64           36.6          55.97         -19.69           18.6         -90.76          39.11          98.98          25.23          128.9
    0.6189              -26.13          30.62           36.6          55.96         -19.67          18.59         -90.65          39.13           99.0          25.25          129.0
    0.6499              -26.12           30.6           36.6          55.95         -19.66          18.58         -90.52          39.15          99.02          25.27          129.0
    0.6808              -26.11          30.57           36.6          55.94         -19.64          18.57         -90.39          39.18          99.05          25.29          129.0
    0.7118               -26.1          30.54           36.6          55.92         -19.62          18.55         -90.23          39.21          99.08          25.31          129.0
    0.7427              -26.09          30.51           36.6           55.9          -19.6          18.54         -90.06          39.24           99.1          25.33          129.0
    0.7737              -26.07          30.48           36.6          55.88         -19.58          18.52         -89.87          39.28          99.14          25.36          129.0
    0.8046              -26.06          30.44           36.6          55.86         -19.55           18.5         -89.66          39.32          99.18          25.38          129.1
    0.8356              -26.04          30.39           36.6          55.83         -19.52          18.48         -89.42          39.36          99.22          25.42          129.1
    0.8665              -26.02          30.34           36.6          55.81         -19.49          18.45         -89.15          39.41          99.26          25.45          129.1
    0.8975               -26.0          30.28           36.6          55.77         -19.45          18.42         -88.84          39.47          99.32           25.5          129.1
    0.9284              -25.98          30.22          36.59          55.74         -19.41          18.39         -88.49          39.54          99.38          25.54          129.2
    0.9593              -25.95          30.14          36.59          55.69         -19.36          18.35         -88.08          39.61          99.45           25.6          129.2
    0.9903              -25.92          30.05          36.59          55.65         -19.31          18.31         -87.62           39.7          99.53          25.66          129.3
     1.021              -25.88          29.95          36.59          55.59         -19.24          18.26         -87.07           39.8          99.63          25.74          129.3
     1.052              -25.84          29.83          36.59          55.52         -19.16           18.2         -86.44          39.92          99.74          25.82          129.4
     1.083              -25.78          29.69          36.58          55.44         -19.07          18.13         -85.69          40.06          99.87          25.93          129.5
     1.114              -25.72          29.53          36.58          55.35         -18.97          18.05          -84.8          40.22          100.0          26.05          129.6
     1.145              -25.65          29.33          36.57          55.24         -18.84          17.95         -83.74          40.42          100.2          26.19          129.7
     1.176              -25.56          29.08          36.57          55.11         -18.68          17.83         -82.45          40.66          100.4          26.37          129.8
     1.207              -25.45          28.79          36.56          54.94         -18.49          17.68         -80.88          40.96          100.7          26.58          130.0
     1.238              -25.32          28.42          36.55          54.74         -18.25           17.5         -78.94          41.32          101.0          26.85          130.2
     1.269              -25.15          27.97          36.54          54.48         -17.96          17.28         -76.52          41.77          101.5          27.18          130.4
       1.3              -24.94           27.4          36.53          54.16         -17.59          16.99         -73.47          42.34          102.0          27.59          130.8
     1.331              -24.67          26.67          36.51          53.76         -17.12          16.63         -69.59          43.07          102.7          28.12          131.2
     1.362              -24.33          25.74          36.49          53.24         -16.52          16.17         -64.63          43.99          103.5           28.8          131.7
     1.393              -23.89          24.54          36.46          52.57         -15.75          15.58         -58.26          45.18          104.6          29.67          132.4
     1.424              -23.32          23.01          36.42          51.72         -14.76          14.83         -50.13           46.7          106.1          30.77          133.2
     1.454              -22.62          21.09          36.38          50.65         -13.52          13.88         -39.91          48.62          107.8          32.17          134.3
     1.485              -21.75          18.75          36.32          49.35         -12.01          12.72         -27.44          50.94          110.0          33.87          135.6
